<?xml version="1.0" encoding="utf-8"?>
<!-- Generator: Adobe Illustrator 16.0.0, SVG Export Plug-In . SVG Version: 6.00 Build 0)  -->
<!DOCTYPE svg PUBLIC "-//W3C//DTD SVG 1.0//EN" "http://www.w3.org/TR/2001/REC-SVG-20010904/DTD/svg10.dtd">
<svg version="1.0" id="Ebene_1" xmlns="http://www.w3.org/2000/svg" xmlns:xlink="http://www.w3.org/1999/xlink" x="0px" y="0px"
	 width="600px" height="600px" viewBox="0 0 600 600" enable-background="new 0 0 600 600" xml:space="preserve">
<path fill="#010202" d="M292.301,50.228c-137.956,0-249.781,111.824-249.781,249.78c0,137.956,111.825,249.781,249.781,249.781
	c137.955,0,249.78-111.826,249.78-249.781C542.081,162.052,430.256,50.228,292.301,50.228z M440.639,448.346
	c-19.271,19.271-41.711,34.409-66.684,44.974c-6.326,2.684-12.775,5.047-19.316,7.074v-37.442c0-19.667-6.753-34.15-20.261-43.389
	c8.445-0.823,16.222-1.952,23.296-3.446c7.073-1.463,14.559-3.567,22.456-6.311c7.896-2.744,14.955-6.067,21.206-9.91
	c6.251-3.811,12.258-8.766,18.05-14.879c5.764-6.067,10.611-12.989,14.514-20.703c3.903-7.73,6.983-17.014,9.284-27.808
	c2.303-10.794,3.415-22.73,3.415-35.735c0-25.208-8.187-46.674-24.62-64.397c7.471-19.514,6.677-40.728-2.439-63.657l-6.113-0.739
	c-4.253-0.496-11.846,1.281-22.823,5.359c-10.976,4.07-23.294,10.741-36.954,19.994c-19.362-5.366-39.425-8.057-60.251-8.057
	c-20.978,0-40.979,2.691-60.005,8.057c-8.614-5.854-16.771-10.694-24.5-14.513c-7.729-3.827-13.919-6.419-18.554-7.806
	c-4.635-1.395-8.934-2.234-12.929-2.562c-3.963-0.328-6.524-0.404-7.683-0.251c-1.129,0.152-1.952,0.328-2.424,0.488
	c-9.102,23.082-9.925,44.319-2.439,63.657c-16.419,17.724-24.636,39.188-24.636,64.396c0,13.004,1.143,24.911,3.43,35.736
	c2.271,10.824,5.367,20.077,9.27,27.808c3.903,7.714,8.734,14.635,14.514,20.733c5.777,6.083,11.783,11.038,18.05,14.879
	c6.251,3.812,13.325,7.105,21.221,9.879c7.868,2.76,15.353,4.879,22.441,6.342c7.089,1.434,14.819,2.592,23.296,3.415
	c-13.339,9.087-20.003,23.569-20.003,43.42v38.143c-7.378-2.179-14.636-4.771-21.77-7.806
	c-24.973-10.564-47.414-25.703-66.684-44.973c-19.27-19.271-34.408-41.712-44.974-66.683c-10.931-25.827-16.465-53.299-16.465-81.64
	c0-28.349,5.534-55.813,16.465-81.646c10.565-24.98,25.704-47.414,44.974-66.691c19.271-19.278,41.711-34.409,66.684-44.975
	c25.841-10.931,53.328-16.473,81.655-16.473c28.326,0,55.812,5.542,81.653,16.473c24.972,10.565,47.414,25.696,66.669,44.975
	c19.254,19.278,34.408,41.711,44.974,66.691c10.931,25.833,16.48,53.313,16.48,81.646c0,28.341-5.534,55.813-16.48,81.64
	c-10.565,24.987-25.688,47.412-44.974,66.683L440.639,448.346z"/>
</svg>
